<svg xmlns="http://www.w3.org/2000/svg" viewBox="0 0 960 640" role="img" aria-labelledby="title">
<title id="title">中国地图（静态高精度省级轮廓）</title>
<style>
  .map-bg { fill: #FFFFFF; stroke: none; }
  .province { fill: #ffd4bf; fill-opacity: 0.95; stroke: #ffc0a3; stroke-width: 1.1; }
  #beijing, #hebei, #guangdong, #jiangsu, #zhejiang, #shandong, #henan, #hubei, #sichuan { fill: #ff3a3a; fill-opacity: 1; stroke: #ff3a3a; animation: provinceGlow 2.6s ease-in-out infinite; transform-origin: center; transform-box: fill-box; }
  #tianjin, #shanxi, #liaoning, #jilin, #heilongjiang, #anhui, #fujian, #jiangxi, #hunan, #guangxi, #chongqing, #shaanxi, #hainan, #shanghai { fill: #ff6700; fill-opacity: 0.96; stroke: #ff6700; }
  .map-pulse-dot { fill: none; stroke: #ffffff; stroke-width: 2; opacity: 0; transform-origin: center; transform-box: fill-box; animation: radioDot 1.1s linear infinite; filter: drop-shadow(0 0 8px rgba(255, 255, 255, 0.95)) drop-shadow(0 0 20px rgba(255, 255, 255, 0.55)); }
  .map-core-dot { fill: #ffffff; opacity: 0.96; filter: drop-shadow(0 0 8px rgba(255, 255, 255, 0.92)); }
  @keyframes radioDot {
    0% { transform: scale(0.45); opacity: 0.95; }
    100% { transform: scale(2.8); opacity: 0; }
  }
  @keyframes provinceGlow {
    0% { fill-opacity: 0.82; }
    50% { fill-opacity: 1; }
    100% { fill-opacity: 0.82; }
  }
  .legend-title { fill: #c02200; font-size: 16px; font-family: "Segoe UI", Arial, sans-serif; font-weight: 700; }
  .legend-label { fill: #475569; font-size: 13px; font-family: "Segoe UI", Arial, sans-serif; }
</style>
<rect x="0" y="0" width="960" height="640" rx="4" class="map-bg"></rect>
<g aria-label="区域热度图例">
  <rect x="742" y="506" width="198" height="108" rx="4" fill="#ffffff" stroke="#e2e8f0"></rect>
  <text x="758" y="530" class="legend-title">市场活跃度</text>
  <rect x="758" y="544" width="16" height="12" fill="#ff3a3a"></rect>
  <text x="782" y="554" class="legend-label">高活跃（核心加盟区）</text>
  <rect x="758" y="564" width="16" height="12" fill="#ff6700"></rect>
  <text x="782" y="574" class="legend-label">增长活跃（重点拓展）</text>
  <rect x="758" y="584" width="16" height="12" fill="#ffd4bf"></rect>
  <text x="782" y="594" class="legend-label">潜力区域（持续覆盖）</text>
</g>
  <path id="beijing" class="province" d="M 578.2 212.6 L 579.6 211.3 L 574.4 210.9 L 571.3 206.4 L 570.8 207.5 L 569.4 207.4 L 569.6 208.4 L 568.3 208.1 L 569.4 210.2 L 567.4 209.8 L 566.5 211.5 L 562.5 213.1 L 564.6 216.7 L 559.6 219.7 L 560.7 222.4 L 559.5 222.8 L 560.2 225.2 L 561.7 225.0 L 563.0 226.3 L 564.0 225.2 L 566.9 225.3 L 569.2 227.2 L 568.9 226.1 L 570.1 225.2 L 572.7 225.2 L 574.3 222.9 L 572.6 221.4 L 572.6 219.6 L 576.8 219.2 L 578.5 217.6 L 576.8 213.6 L 578.2 212.6 Z"></path>
  <path id="tianjin" class="province" d="M 582.3 227.7 L 583.3 227.6 L 583.9 225.5 L 582.3 225.2 L 581.8 226.1 L 581.0 225.1 L 579.8 220.7 L 582.6 220.1 L 580.1 217.1 L 578.8 216.9 L 576.6 219.2 L 576.3 221.6 L 577.2 222.2 L 576.3 222.4 L 576.3 224.9 L 574.1 223.8 L 572.9 225.0 L 573.9 231.4 L 572.3 232.3 L 572.3 235.9 L 575.4 236.8 L 575.8 238.0 L 576.8 237.3 L 577.2 238.4 L 581.9 236.8 L 581.1 234.9 L 583.1 234.6 L 583.3 231.2 L 585.2 229.9 L 582.7 228.0 L 580.0 228.5 L 581.6 227.6 Z"></path>
  <path id="hebei" class="province" d="M 579.3 211.7 L 576.8 213.6 L 577.0 215.3 L 578.2 217.1 L 580.1 217.1 L 582.4 219.3 L 582.4 220.5 L 579.8 220.7 L 581.0 225.1 L 581.8 226.1 L 582.3 225.2 L 583.9 225.5 L 582.7 228.3 L 584.8 229.1 L 586.8 232.3 L 589.4 233.9 L 590.5 233.1 L 590.3 231.1 L 593.9 230.5 L 593.7 231.2 L 597.1 228.2 L 598.0 223.4 L 599.7 221.5 L 603.0 220.6 L 601.7 217.4 L 600.7 217.1 L 599.9 213.0 L 596.9 213.1 L 596.2 211.3 L 594.9 211.5 L 592.9 209.4 L 593.4 207.6 L 594.4 207.6 L 593.8 206.4 L 596.7 203.0 L 588.0 202.7 L 585.9 197.5 L 587.9 196.1 L 587.5 193.3 L 585.7 193.5 L 585.6 191.7 L 584.4 191.0 L 584.8 188.9 L 582.6 185.9 L 579.4 186.0 L 578.6 187.9 L 575.7 187.6 L 574.0 188.7 L 572.7 194.3 L 570.4 195.0 L 568.0 194.1 L 565.9 197.0 L 563.3 194.8 L 558.5 197.8 L 558.8 199.2 L 553.7 199.3 L 554.5 196.0 L 553.1 192.0 L 550.3 192.6 L 550.3 194.3 L 548.7 194.6 L 547.3 196.8 L 547.6 200.4 L 544.6 200.8 L 544.3 203.0 L 545.4 204.1 L 543.5 205.9 L 545.9 208.1 L 548.3 215.3 L 550.5 215.6 L 546.2 217.6 L 546.1 219.1 L 545.2 218.6 L 544.4 219.8 L 547.4 221.8 L 549.2 221.7 L 549.3 224.5 L 550.9 225.5 L 548.7 231.8 L 546.4 232.1 L 545.8 231.1 L 544.3 231.9 L 543.0 233.3 L 543.7 235.8 L 541.0 238.3 L 540.8 242.0 L 543.6 243.2 L 545.2 249.0 L 546.7 249.4 L 543.1 255.8 L 543.1 259.5 L 540.0 261.3 L 542.6 265.5 L 548.7 266.8 L 551.1 268.5 L 554.2 268.2 L 554.3 269.3 L 556.3 267.4 L 558.2 268.9 L 559.9 268.1 L 557.8 263.9 L 559.8 260.7 L 561.8 260.1 L 564.7 253.6 L 567.2 253.3 L 568.2 250.5 L 569.2 251.9 L 572.8 247.2 L 579.1 247.1 L 580.5 244.4 L 582.3 243.6 L 584.2 240.6 L 582.4 240.7 L 581.0 237.5 L 577.2 238.4 L 576.8 237.3 L 575.8 238.0 L 575.4 236.8 L 572.3 235.9 L 572.3 232.3 L 573.9 231.4 L 572.9 225.0 L 570.1 225.2 L 568.9 226.1 L 569.2 227.2 L 566.9 225.3 L 564.0 225.2 L 562.5 226.2 L 561.7 225.0 L 560.2 225.2 L 559.4 223.2 L 560.7 222.4 L 559.6 219.7 L 564.6 216.7 L 562.5 213.1 L 566.5 211.5 L 567.4 209.8 L 569.4 210.2 L 568.3 208.1 L 569.6 208.4 L 569.4 207.4 L 570.8 207.5 L 571.0 206.4 L 574.4 210.9 L 579.3 211.7 Z M 576.8 219.0 L 573.1 219.4 L 572.4 220.5 L 573.9 222.0 L 573.7 224.0 L 576.5 224.6 L 576.6 219.2 Z M 582.5 228.0 L 580.4 227.6 L 580.0 228.5 L 582.1 228.3 Z"></path>
  <path id="shanxi" class="province" d="M 509.7 286.8 L 514.1 286.6 L 517.3 284.3 L 521.4 283.9 L 523.8 281.2 L 526.2 281.3 L 526.2 278.6 L 533.2 279.5 L 541.6 274.4 L 542.6 265.5 L 540.0 261.3 L 543.1 259.5 L 543.1 255.8 L 546.7 249.4 L 545.2 249.0 L 543.6 243.2 L 540.8 242.0 L 541.0 238.3 L 543.7 235.8 L 543.0 233.3 L 544.3 231.9 L 545.8 231.1 L 546.4 232.1 L 548.7 231.8 L 550.9 225.5 L 549.3 224.5 L 549.2 221.7 L 547.4 221.8 L 544.4 219.8 L 545.2 218.6 L 546.1 219.1 L 546.2 217.6 L 550.5 215.6 L 548.3 215.3 L 548.1 212.4 L 546.6 210.5 L 545.9 213.2 L 543.8 214.1 L 543.3 213.4 L 541.0 215.6 L 535.8 215.3 L 533.0 217.9 L 530.1 216.2 L 528.7 216.8 L 525.0 224.9 L 520.7 224.4 L 519.3 227.3 L 517.2 227.6 L 518.3 228.9 L 515.6 233.2 L 514.6 239.7 L 511.0 242.9 L 511.1 245.9 L 513.2 248.2 L 513.8 250.8 L 512.3 252.3 L 512.8 254.2 L 509.8 257.4 L 509.9 261.7 L 510.9 262.8 L 510.4 267.9 L 512.0 274.4 L 508.3 283.4 L 508.9 286.6 Z"></path>
  <path id="neimenggu" class="province" d="M 380.0 183.4 L 386.6 198.5 L 384.5 201.4 L 387.9 205.9 L 391.4 208.2 L 391.5 212.7 L 394.7 210.1 L 396.0 212.2 L 395.9 211.0 L 397.8 210.0 L 399.0 211.3 L 399.7 209.0 L 408.3 208.3 L 410.1 210.8 L 409.4 216.5 L 406.2 219.9 L 402.3 221.5 L 406.0 221.8 L 410.2 224.1 L 412.7 227.7 L 416.0 227.6 L 416.0 232.5 L 417.3 233.5 L 419.8 232.5 L 420.8 235.6 L 425.2 237.1 L 428.2 234.1 L 425.8 231.7 L 426.5 231.4 L 431.9 229.5 L 437.3 231.5 L 440.6 228.6 L 445.6 226.9 L 447.9 227.5 L 447.5 229.0 L 449.0 232.9 L 445.7 237.3 L 441.3 240.3 L 442.5 243.4 L 440.8 244.9 L 441.2 247.1 L 444.0 248.1 L 448.9 252.7 L 460.0 249.0 L 462.8 249.1 L 464.4 247.8 L 466.4 233.9 L 468.1 230.8 L 469.5 230.9 L 469.5 229.5 L 471.7 229.3 L 472.6 228.0 L 474.4 228.1 L 476.3 232.4 L 471.4 241.3 L 476.0 243.7 L 478.4 243.4 L 480.6 246.0 L 486.2 248.0 L 486.6 249.7 L 494.0 249.3 L 494.2 244.7 L 495.5 246.3 L 496.9 245.0 L 495.6 242.7 L 496.7 239.9 L 505.2 231.4 L 505.0 229.3 L 505.6 230.1 L 508.1 229.2 L 507.5 227.0 L 509.8 228.8 L 511.1 227.9 L 512.1 229.4 L 514.7 226.3 L 517.2 225.3 L 516.7 228.0 L 519.1 227.4 L 520.7 224.4 L 525.0 224.9 L 528.7 216.8 L 530.1 216.2 L 533.0 217.9 L 535.8 215.3 L 537.9 214.7 L 538.6 215.9 L 540.4 215.8 L 543.3 213.4 L 543.8 214.1 L 545.9 213.2 L 546.6 210.5 L 545.9 208.1 L 543.5 205.9 L 545.4 204.1 L 544.0 201.7 L 545.6 200.2 L 547.6 200.4 L 547.3 196.8 L 548.7 194.6 L 550.3 194.3 L 550.8 192.3 L 553.8 192.7 L 554.5 196.0 L 553.7 199.3 L 557.1 199.7 L 558.8 199.2 L 558.5 197.8 L 563.3 194.8 L 565.9 197.0 L 568.0 194.1 L 570.4 195.0 L 572.7 194.3 L 574.0 188.7 L 575.7 187.6 L 578.6 187.9 L 579.4 186.0 L 582.4 185.8 L 584.8 188.9 L 584.4 191.0 L 585.6 191.7 L 585.7 193.5 L 587.5 193.3 L 587.9 196.1 L 585.9 197.5 L 588.3 203.1 L 592.9 202.2 L 593.3 203.2 L 596.3 203.4 L 598.5 199.7 L 597.3 196.8 L 598.2 192.8 L 596.7 191.4 L 599.3 188.9 L 600.5 190.7 L 602.7 191.2 L 605.2 198.0 L 608.8 192.6 L 612.9 190.4 L 614.7 190.7 L 617.8 187.7 L 620.0 187.2 L 620.9 188.2 L 623.3 184.9 L 627.8 184.9 L 628.4 184.0 L 627.3 183.0 L 628.2 182.8 L 632.2 184.5 L 635.9 183.0 L 636.2 180.8 L 639.3 180.6 L 640.5 177.0 L 640.6 175.7 L 636.8 174.1 L 639.0 172.1 L 636.9 166.8 L 637.5 164.9 L 634.9 162.1 L 634.9 160.2 L 630.5 163.2 L 626.5 163.7 L 626.7 160.6 L 625.2 159.2 L 625.5 156.6 L 624.3 154.6 L 626.2 149.5 L 625.3 149.3 L 625.5 147.2 L 623.9 146.3 L 623.6 143.7 L 620.4 142.9 L 622.1 141.1 L 621.5 139.4 L 622.3 139.0 L 626.4 142.2 L 628.2 140.5 L 628.8 142.4 L 631.1 143.5 L 631.6 138.3 L 634.1 138.0 L 635.4 135.8 L 633.7 131.2 L 639.6 129.6 L 639.6 126.7 L 638.7 127.6 L 638.9 125.9 L 636.6 125.1 L 637.4 127.4 L 635.9 127.2 L 635.3 128.8 L 633.7 129.0 L 632.7 125.7 L 631.5 125.5 L 632.2 124.1 L 629.9 123.3 L 628.0 120.0 L 629.7 117.2 L 635.3 113.8 L 636.6 111.2 L 639.4 109.9 L 646.1 102.6 L 648.2 108.0 L 647.6 109.3 L 648.7 108.4 L 648.6 102.3 L 651.5 94.0 L 652.4 93.0 L 654.5 93.8 L 655.5 92.9 L 656.0 88.9 L 654.6 85.9 L 655.5 85.7 L 655.2 81.2 L 656.5 79.6 L 655.9 79.0 L 657.7 77.3 L 658.6 74.2 L 661.5 72.0 L 660.8 69.1 L 663.1 67.2 L 663.7 64.5 L 656.8 55.4 L 654.6 54.8 L 652.0 59.2 L 649.7 60.0 L 648.3 59.2 L 647.5 60.9 L 645.9 59.8 L 642.8 60.5 L 640.7 58.9 L 640.2 60.2 L 638.0 60.9 L 633.7 60.3 L 630.0 48.3 L 631.6 45.3 L 628.6 44.6 L 628.3 43.1 L 625.5 41.1 L 622.3 44.9 L 620.3 42.3 L 615.8 39.8 L 619.8 36.1 L 622.1 32.2 L 618.9 27.7 L 612.9 28.4 L 607.1 35.4 L 604.5 36.9 L 605.0 40.0 L 608.8 39.0 L 611.4 40.8 L 610.4 44.2 L 611.9 46.9 L 610.7 50.6 L 605.1 54.5 L 601.9 63.7 L 595.6 74.6 L 597.9 75.1 L 597.8 78.1 L 595.3 80.8 L 590.2 81.7 L 582.7 87.9 L 572.0 82.9 L 563.0 103.0 L 563.2 106.7 L 560.3 108.3 L 560.8 111.7 L 564.3 115.2 L 567.5 112.4 L 572.7 112.1 L 575.7 113.1 L 578.5 115.8 L 582.7 110.3 L 590.2 110.7 L 592.2 113.9 L 595.7 115.5 L 595.9 117.3 L 598.0 118.2 L 597.6 118.9 L 601.4 122.3 L 603.5 126.5 L 603.3 129.8 L 601.0 131.1 L 598.1 130.8 L 593.6 128.3 L 592.3 129.6 L 587.7 128.8 L 582.1 132.0 L 580.6 130.8 L 578.9 131.1 L 578.4 134.3 L 573.1 133.9 L 570.7 135.2 L 567.6 139.8 L 567.7 142.5 L 566.6 143.8 L 558.7 147.9 L 550.7 148.0 L 546.4 154.0 L 541.7 156.9 L 534.0 155.6 L 530.0 152.4 L 525.7 152.1 L 523.3 153.8 L 519.9 162.3 L 524.4 168.0 L 525.2 171.3 L 516.0 176.2 L 510.3 183.6 L 499.0 188.2 L 481.1 187.9 L 464.2 194.7 L 457.0 199.5 L 456.1 198.6 L 452.2 198.5 L 452.3 195.7 L 445.8 196.6 L 441.4 195.6 L 434.4 192.0 L 428.1 190.9 L 425.5 187.3 L 416.3 185.1 L 411.0 184.8 L 403.0 186.5 L 381.1 183.6 Z"></path>
  <path id="liaoning" class="province" d="M 638.9 222.8 L 644.5 222.3 L 645.0 223.3 L 646.9 219.0 L 650.8 215.3 L 660.1 210.1 L 660.3 208.9 L 659.1 208.0 L 661.1 204.9 L 658.7 201.9 L 657.7 198.3 L 656.4 198.3 L 656.2 196.4 L 656.3 194.4 L 658.1 192.2 L 656.3 192.1 L 656.3 190.2 L 655.0 189.9 L 655.2 188.3 L 654.0 187.4 L 654.3 185.7 L 653.4 185.6 L 653.1 183.3 L 652.1 183.5 L 652.2 178.9 L 648.1 182.7 L 647.2 182.3 L 647.7 179.7 L 646.2 177.6 L 643.8 176.9 L 641.5 174.1 L 639.3 180.6 L 636.2 180.8 L 635.9 183.0 L 632.2 184.5 L 628.2 182.8 L 627.3 183.0 L 628.4 184.0 L 627.8 184.9 L 623.3 184.9 L 620.9 188.2 L 620.0 187.2 L 617.8 187.7 L 614.7 190.7 L 612.9 190.4 L 608.8 192.6 L 605.2 198.0 L 602.7 191.2 L 600.5 190.7 L 599.3 188.9 L 597.1 190.6 L 596.7 191.4 L 598.2 192.8 L 597.3 196.8 L 598.3 201.0 L 595.2 205.9 L 593.8 206.4 L 594.4 207.6 L 593.4 207.6 L 592.9 209.4 L 594.9 211.5 L 596.2 211.3 L 596.9 213.1 L 599.9 213.0 L 600.7 217.1 L 602.8 220.2 L 609.0 217.5 L 610.3 214.1 L 612.4 211.4 L 614.4 210.9 L 613.8 209.7 L 615.3 208.8 L 618.9 208.7 L 619.5 209.5 L 622.1 208.5 L 623.4 211.3 L 625.3 211.4 L 626.3 213.4 L 625.8 215.1 L 623.3 216.9 L 623.8 218.4 L 619.4 221.7 L 618.5 224.8 L 616.3 225.7 L 616.7 228.0 L 619.1 229.1 L 621.2 228.2 L 619.8 229.4 L 620.2 231.8 L 619.8 230.8 L 619.0 232.3 L 617.7 232.0 L 614.9 233.8 L 615.4 236.3 L 621.0 234.4 L 620.6 232.7 L 623.1 233.2 L 622.4 232.3 L 624.5 232.0 L 625.0 230.1 L 630.2 226.2 L 638.8 223.0 Z M 630.1 229.2 L 628.9 229.1 L 630.2 229.1 Z M 627.0 230.6 L 627.8 230.7 L 627.0 230.6 Z M 633.9 225.8 L 633.1 226.2 L 634.0 226.0 Z M 635.3 232.5 L 635.7 231.8 L 635.1 232.3 Z"></path>
  <path id="jilin" class="province" d="M 698.5 188.5 L 700.0 187.8 L 701.4 180.7 L 705.2 182.1 L 705.0 184.6 L 706.7 186.7 L 707.6 185.7 L 708.8 188.4 L 708.3 185.1 L 706.4 184.3 L 713.7 181.5 L 715.4 174.0 L 710.9 174.8 L 708.6 172.3 L 706.5 171.9 L 706.0 166.6 L 703.2 169.4 L 702.0 166.8 L 699.9 168.8 L 695.1 169.6 L 694.9 172.7 L 691.4 173.4 L 690.0 170.7 L 690.3 169.1 L 689.0 168.6 L 687.4 165.0 L 686.5 160.1 L 684.5 162.4 L 683.3 162.4 L 683.7 165.3 L 680.7 166.2 L 677.7 161.5 L 678.4 159.3 L 674.8 158.3 L 673.5 159.4 L 672.8 155.8 L 673.9 154.1 L 672.6 151.5 L 668.7 149.9 L 665.5 151.4 L 663.1 151.1 L 660.2 148.5 L 660.1 146.2 L 657.5 146.6 L 656.9 147.9 L 654.3 148.0 L 652.5 145.9 L 652.2 147.2 L 647.4 147.2 L 643.5 142.6 L 643.1 135.3 L 639.3 136.2 L 636.1 135.5 L 634.1 138.0 L 631.6 138.3 L 631.1 143.5 L 628.8 142.4 L 628.2 140.5 L 626.4 142.2 L 624.3 139.9 L 621.5 139.4 L 622.1 141.1 L 620.4 142.9 L 623.6 143.7 L 623.9 146.3 L 625.5 147.2 L 625.3 149.3 L 626.2 149.5 L 624.3 154.6 L 625.5 156.6 L 625.2 159.2 L 626.7 160.6 L 626.5 163.7 L 630.5 163.2 L 634.9 160.2 L 634.9 162.1 L 637.5 164.9 L 636.9 166.8 L 638.8 171.1 L 638.1 173.3 L 636.7 173.3 L 637.8 175.2 L 640.6 175.7 L 641.0 174.3 L 642.1 174.5 L 643.8 176.9 L 646.2 177.6 L 647.7 179.7 L 647.2 182.3 L 648.1 182.7 L 652.2 178.9 L 652.1 183.5 L 653.1 183.3 L 653.4 185.6 L 654.3 185.7 L 654.0 187.4 L 655.2 188.3 L 655.0 189.9 L 656.3 190.2 L 656.3 192.1 L 658.1 192.2 L 656.2 194.6 L 656.4 198.3 L 657.7 198.3 L 658.7 201.9 L 661.1 204.9 L 659.1 208.5 L 663.6 208.1 L 664.4 205.9 L 668.4 202.3 L 669.1 198.4 L 672.3 196.5 L 675.5 200.8 L 682.8 201.3 L 683.9 202.4 L 685.9 199.6 L 683.1 194.0 L 692.2 193.7 L 694.7 191.3 L 696.2 187.9 L 698.2 188.7 Z"></path>
  <path id="heilongjiang" class="province" d="M 639.3 136.2 L 643.1 135.3 L 643.5 142.6 L 647.4 147.2 L 652.2 147.2 L 652.5 145.9 L 654.3 148.0 L 656.9 147.9 L 657.5 146.6 L 660.1 146.2 L 660.2 148.5 L 663.1 151.1 L 665.5 151.4 L 668.7 149.9 L 672.6 151.5 L 673.9 154.1 L 672.8 155.8 L 673.5 159.4 L 674.8 158.3 L 678.4 159.3 L 677.7 161.5 L 680.7 166.2 L 683.7 165.3 L 683.3 162.4 L 684.5 162.4 L 686.5 160.1 L 687.4 165.0 L 689.0 168.6 L 690.3 169.1 L 690.0 170.7 L 691.4 173.4 L 694.9 172.7 L 695.1 169.6 L 699.9 168.8 L 702.0 166.8 L 703.2 169.4 L 706.0 166.6 L 706.5 171.9 L 708.6 172.3 L 710.9 174.8 L 712.5 173.8 L 713.7 175.0 L 715.3 173.9 L 714.2 173.5 L 715.3 166.5 L 713.4 157.4 L 711.9 155.5 L 717.2 153.7 L 721.0 148.6 L 731.5 153.1 L 733.3 151.6 L 733.3 147.4 L 736.5 144.6 L 736.5 141.7 L 738.5 140.2 L 738.8 137.1 L 740.8 135.8 L 741.2 133.7 L 740.2 132.6 L 741.8 130.3 L 742.4 125.4 L 743.9 123.6 L 743.5 120.4 L 747.3 118.2 L 749.4 114.7 L 747.2 110.8 L 748.4 106.8 L 752.5 104.1 L 743.7 104.9 L 739.2 106.8 L 737.3 108.8 L 733.2 108.6 L 730.1 111.5 L 728.6 111.4 L 727.6 114.7 L 725.7 114.0 L 718.1 115.5 L 716.7 114.3 L 712.1 114.8 L 709.0 109.0 L 710.7 106.2 L 710.0 103.1 L 708.5 103.2 L 707.7 101.5 L 709.1 97.5 L 704.8 97.7 L 701.8 95.1 L 699.8 91.4 L 698.1 91.2 L 697.7 89.4 L 693.4 90.3 L 692.8 88.9 L 690.3 88.5 L 690.1 86.8 L 684.6 87.6 L 681.0 86.8 L 678.2 83.3 L 678.9 76.9 L 676.2 75.4 L 675.9 69.0 L 672.2 64.2 L 672.8 60.2 L 671.9 60.1 L 672.1 61.3 L 671.2 60.8 L 672.1 58.8 L 670.9 58.4 L 671.4 56.8 L 669.8 55.7 L 670.4 54.0 L 667.7 50.2 L 668.6 47.2 L 666.2 46.1 L 667.4 44.6 L 666.4 44.4 L 666.6 43.2 L 664.6 40.2 L 662.8 39.3 L 664.3 37.0 L 662.8 37.2 L 661.5 34.9 L 660.0 35.5 L 660.6 33.4 L 659.4 31.9 L 658.5 32.4 L 654.7 29.9 L 652.2 30.6 L 652.1 31.6 L 650.2 29.9 L 647.8 29.6 L 645.9 27.0 L 644.7 27.6 L 639.8 24.2 L 638.9 24.9 L 638.8 24.1 L 638.6 25.1 L 636.4 24.0 L 632.0 25.8 L 628.1 26.0 L 627.3 25.0 L 622.6 26.3 L 618.9 27.7 L 622.1 32.2 L 619.8 36.1 L 615.8 39.8 L 620.3 42.3 L 622.3 44.9 L 625.5 41.1 L 628.3 43.1 L 628.6 44.6 L 631.6 45.3 L 630.0 48.3 L 633.7 60.3 L 638.0 60.9 L 640.2 60.2 L 640.7 58.9 L 642.8 60.5 L 645.9 59.8 L 647.5 60.9 L 648.3 59.2 L 649.7 60.0 L 652.0 59.2 L 654.6 54.8 L 656.8 55.4 L 663.7 64.5 L 663.1 67.2 L 660.8 69.1 L 661.5 72.0 L 658.6 74.2 L 657.7 77.3 L 655.9 79.0 L 656.5 79.6 L 655.2 81.2 L 655.5 85.7 L 654.6 85.9 L 656.0 88.9 L 655.5 92.9 L 654.5 93.8 L 652.4 93.0 L 651.5 94.0 L 648.6 102.3 L 648.7 108.4 L 647.6 109.3 L 648.2 108.0 L 646.1 102.6 L 639.4 109.9 L 636.6 111.2 L 635.3 113.8 L 629.7 117.2 L 628.0 120.0 L 629.9 123.3 L 632.2 124.1 L 631.5 125.5 L 632.7 125.7 L 633.9 129.1 L 635.3 128.8 L 635.9 127.2 L 637.4 127.4 L 636.6 125.1 L 638.9 125.9 L 638.7 127.6 L 639.6 126.7 L 639.6 129.6 L 633.7 131.2 L 635.4 135.8 L 639.3 136.2 Z"></path>
  <path id="shanghai" class="province" d="M 613.1 328.7 L 613.9 328.7 L 614.0 330.7 L 615.0 330.5 L 616.7 332.6 L 620.7 330.9 L 623.3 331.4 L 623.8 329.2 L 621.1 325.4 L 617.4 323.0 L 615.2 324.6 L 614.8 327.0 L 613.0 327.8 Z M 623.6 321.8 L 617.2 318.9 L 615.2 320.1 L 617.7 322.5 L 622.8 323.9 L 623.8 323.2 Z M 621.9 325.1 L 619.0 323.3 L 621.8 325.3 Z M 621.9 324.8 L 625.1 325.3 L 621.8 324.5 Z M 623.3 326.4 L 623.8 327.0 L 623.4 326.2 Z"></path>
  <path id="jiangsu" class="province" d="M 577.8 287.2 L 576.4 288.8 L 575.4 285.4 L 572.7 282.3 L 569.3 283.2 L 568.6 286.3 L 574.4 289.3 L 575.0 291.9 L 576.6 293.1 L 580.9 293.6 L 582.1 297.3 L 586.2 297.0 L 584.0 303.1 L 585.0 304.1 L 586.7 303.4 L 587.5 308.2 L 591.5 309.0 L 592.9 306.2 L 594.6 306.2 L 596.2 307.7 L 596.7 310.3 L 595.2 312.1 L 593.5 310.5 L 590.2 310.5 L 591.5 313.5 L 588.4 316.5 L 588.1 318.1 L 589.3 319.9 L 593.0 321.7 L 592.9 324.3 L 591.7 325.2 L 592.4 326.2 L 597.8 325.4 L 598.2 326.9 L 600.3 327.6 L 603.4 326.9 L 605.3 329.4 L 608.5 329.8 L 609.2 331.6 L 611.2 330.2 L 611.1 329.2 L 613.1 328.7 L 612.9 327.3 L 614.8 327.0 L 615.2 324.6 L 617.7 322.5 L 615.2 320.1 L 616.0 319.2 L 617.2 318.9 L 623.6 321.8 L 622.4 317.9 L 618.5 315.3 L 618.2 312.3 L 613.7 310.2 L 612.4 302.5 L 607.3 290.3 L 600.7 287.1 L 598.7 284.6 L 596.7 284.4 L 597.2 280.6 L 593.0 281.7 L 592.3 285.3 L 589.1 286.1 L 588.3 289.0 L 586.3 289.4 L 586.4 287.4 L 584.1 285.8 L 580.6 288.4 L 577.8 287.2 Z"></path>
  <path id="zhejiang" class="province" d="M 588.8 359.5 L 592.5 360.0 L 591.7 363.0 L 593.5 368.7 L 597.0 369.1 L 600.3 366.3 L 601.9 370.4 L 606.8 369.0 L 608.8 372.2 L 609.6 372.1 L 611.9 365.2 L 613.5 363.9 L 615.9 364.7 L 614.0 363.3 L 614.6 361.6 L 616.6 362.3 L 618.8 359.4 L 620.2 359.9 L 620.8 358.2 L 619.3 355.4 L 621.6 353.1 L 620.0 349.6 L 623.5 350.9 L 623.9 345.0 L 622.2 344.2 L 625.3 341.6 L 621.1 340.3 L 617.7 336.0 L 615.0 334.4 L 616.7 332.0 L 614.0 330.7 L 613.9 328.7 L 611.1 329.2 L 611.2 330.2 L 609.2 331.6 L 608.5 329.8 L 605.3 329.4 L 603.4 326.9 L 600.5 327.4 L 598.8 332.9 L 596.7 333.3 L 598.4 336.0 L 593.2 336.7 L 593.4 341.0 L 591.9 343.2 L 585.0 349.2 L 585.5 351.6 L 588.2 353.6 L 589.3 359.1 Z M 625.5 340.4 L 627.0 340.9 L 626.7 339.1 L 623.4 338.2 L 625.0 340.4 Z M 628.1 331.9 L 629.1 332.3 L 628.2 331.8 Z M 625.5 336.5 L 624.4 336.9 L 626.1 337.6 L 625.6 336.3 Z M 627.0 337.4 L 628.0 337.5 L 627.1 337.2 Z M 627.5 341.5 L 627.3 340.7 L 627.4 341.5 Z M 626.5 342.0 L 626.9 342.9 L 627.0 342.2 Z M 623.3 331.4 L 625.2 333.5 L 623.6 331.3 Z M 625.7 344.2 L 625.2 342.6 L 624.3 343.4 L 625.2 344.1 Z M 622.4 340.5 L 623.2 340.3 L 622.7 339.2 L 622.3 340.5 Z"></path>
  <path id="anhui" class="province" d="M 570.8 293.7 L 571.1 295.2 L 566.5 297.3 L 564.5 293.8 L 561.6 293.2 L 560.5 295.4 L 561.3 295.5 L 560.6 296.6 L 561.4 298.8 L 558.5 299.8 L 557.9 304.1 L 554.2 304.2 L 554.0 305.8 L 557.0 307.4 L 557.1 310.5 L 559.1 310.7 L 561.3 312.6 L 564.0 310.7 L 564.1 319.5 L 560.0 321.1 L 558.8 324.8 L 560.9 327.2 L 562.0 326.5 L 565.5 328.7 L 562.6 332.5 L 564.0 334.4 L 564.0 336.7 L 565.6 337.9 L 566.3 342.3 L 570.4 341.3 L 571.5 339.4 L 573.8 340.8 L 571.5 343.5 L 572.0 345.2 L 575.9 343.5 L 575.5 342.2 L 576.9 341.1 L 577.2 342.1 L 578.8 341.9 L 580.1 344.9 L 584.6 345.0 L 585.9 346.8 L 587.7 346.8 L 593.4 341.0 L 593.2 336.7 L 598.4 336.0 L 596.7 333.3 L 598.8 332.9 L 600.6 328.6 L 600.8 327.7 L 598.2 326.9 L 597.8 325.4 L 592.4 326.2 L 591.7 325.2 L 592.9 324.3 L 593.0 321.7 L 590.9 321.4 L 591.4 320.7 L 589.7 320.3 L 588.1 318.1 L 588.4 316.5 L 591.5 313.5 L 590.2 310.5 L 593.5 310.5 L 595.2 312.1 L 596.7 310.3 L 596.2 307.7 L 594.6 306.2 L 592.9 306.2 L 592.0 308.8 L 588.3 309.0 L 587.0 307.5 L 586.7 303.4 L 585.0 304.1 L 584.0 303.1 L 586.2 297.0 L 582.1 297.3 L 580.9 293.6 L 576.6 293.1 L 575.0 291.9 L 574.4 289.3 L 570.7 288.0 L 569.2 286.2 L 566.9 287.1 L 566.5 288.5 L 568.6 290.8 L 570.6 290.8 L 570.8 293.7 Z"></path>
  <path id="fujian" class="province" d="M 594.4 396.0 L 594.6 395.0 L 593.3 394.6 L 594.2 393.8 L 593.6 392.9 L 595.1 393.4 L 595.6 395.5 L 595.7 393.2 L 597.0 393.9 L 598.1 392.9 L 595.8 391.4 L 596.6 390.6 L 597.9 391.2 L 597.9 390.0 L 598.8 390.3 L 600.3 392.0 L 601.0 390.6 L 602.0 391.4 L 602.9 390.7 L 602.1 388.4 L 601.0 390.5 L 599.1 388.8 L 600.3 388.2 L 601.5 384.6 L 600.3 382.9 L 603.8 380.9 L 602.1 378.4 L 600.1 377.9 L 600.9 376.8 L 603.0 377.7 L 603.7 376.2 L 604.8 376.3 L 602.5 379.0 L 605.6 377.8 L 604.8 375.3 L 608.8 372.2 L 606.8 369.0 L 601.9 370.4 L 600.3 366.3 L 597.0 369.1 L 593.5 368.7 L 591.6 359.2 L 588.7 359.5 L 587.7 360.2 L 588.1 361.7 L 583.2 363.3 L 582.0 364.9 L 579.9 362.9 L 577.5 364.2 L 576.8 366.2 L 575.1 366.4 L 576.4 370.6 L 575.3 372.7 L 570.3 375.6 L 570.8 380.7 L 570.0 380.3 L 569.0 381.5 L 569.7 383.5 L 568.6 385.2 L 566.2 386.3 L 565.0 392.2 L 563.5 393.4 L 563.7 396.1 L 567.3 397.9 L 568.8 397.0 L 570.1 399.9 L 572.9 399.4 L 572.4 400.6 L 574.7 404.5 L 574.6 408.0 L 577.7 411.3 L 579.3 410.9 L 586.1 403.5 L 585.1 401.9 L 585.8 400.3 L 587.0 400.9 L 589.6 399.9 L 590.6 400.8 L 592.3 398.1 L 590.9 397.3 L 594.3 397.0 L 593.6 396.4 L 594.5 396.0 Z M 588.6 400.9 L 587.5 401.3 L 587.8 402.3 L 589.1 402.0 L 589.0 401.0 Z M 586.6 401.0 L 586.0 400.4 L 585.2 401.5 L 586.5 401.5 Z M 601.0 377.9 L 601.8 377.3 L 600.8 377.6 Z"></path>
  <path id="jiangxi" class="province" d="M 586.5 347.1 L 584.6 345.0 L 580.1 344.9 L 578.8 341.9 L 577.2 342.1 L 576.9 341.1 L 575.5 342.2 L 575.9 343.5 L 572.0 345.2 L 571.4 343.7 L 573.8 340.8 L 571.5 339.4 L 570.4 341.3 L 567.7 342.6 L 564.0 343.4 L 560.1 342.1 L 557.9 344.6 L 556.2 343.8 L 556.6 345.8 L 555.1 345.1 L 553.7 346.2 L 554.6 346.3 L 554.1 347.1 L 548.3 347.4 L 547.8 348.9 L 545.9 349.2 L 544.8 351.8 L 546.8 353.5 L 546.1 356.5 L 547.8 359.2 L 545.2 360.9 L 545.5 362.4 L 542.8 363.5 L 541.1 367.8 L 541.5 370.0 L 544.0 369.5 L 543.0 372.7 L 544.6 374.4 L 543.9 377.5 L 546.4 378.5 L 544.9 383.1 L 547.6 383.1 L 545.4 384.6 L 544.7 390.9 L 545.7 392.9 L 550.6 391.1 L 552.6 392.7 L 552.5 394.3 L 550.8 394.8 L 548.6 398.4 L 546.9 399.0 L 549.2 401.1 L 552.2 400.8 L 552.5 399.9 L 553.8 400.4 L 554.2 399.3 L 559.2 397.9 L 561.9 400.6 L 563.4 400.4 L 562.5 398.4 L 564.2 396.1 L 563.5 393.4 L 565.0 392.2 L 566.2 386.3 L 568.6 385.2 L 569.7 383.5 L 569.0 381.5 L 571.2 379.5 L 570.2 378.6 L 570.3 375.6 L 575.3 372.7 L 576.4 370.6 L 574.8 366.9 L 576.8 366.2 L 577.5 364.2 L 579.9 362.9 L 582.0 364.9 L 583.2 363.3 L 588.1 361.7 L 587.7 360.2 L 589.3 359.1 L 588.2 353.6 L 584.9 350.4 L 585.3 348.3 L 586.6 347.7 Z"></path>
  <path id="shandong" class="province" d="M 568.6 286.3 L 569.3 283.2 L 572.7 282.3 L 575.4 285.4 L 576.4 288.8 L 578.4 287.0 L 580.0 288.4 L 582.6 287.7 L 582.5 286.2 L 584.1 285.8 L 586.4 287.4 L 586.3 289.4 L 588.3 289.0 L 589.1 286.1 L 592.3 285.3 L 593.0 281.7 L 596.9 280.5 L 598.1 281.1 L 600.9 274.9 L 603.5 274.3 L 603.5 272.8 L 604.4 273.4 L 604.8 271.5 L 607.2 270.3 L 605.4 268.7 L 606.0 267.4 L 607.8 267.5 L 607.0 269.4 L 611.2 268.4 L 611.0 265.2 L 612.4 264.2 L 612.8 265.5 L 613.7 264.3 L 612.5 262.4 L 614.3 262.9 L 619.6 259.8 L 618.8 260.3 L 620.4 261.1 L 620.2 260.2 L 623.9 258.2 L 625.6 259.6 L 629.1 258.9 L 629.6 257.3 L 628.4 257.3 L 628.6 256.1 L 630.9 252.9 L 625.5 252.3 L 625.3 250.8 L 619.7 252.3 L 617.9 250.0 L 616.2 250.5 L 615.4 248.8 L 611.4 247.4 L 606.5 249.1 L 606.6 250.8 L 602.7 253.1 L 603.2 254.5 L 601.7 256.1 L 597.6 256.3 L 596.4 254.3 L 594.9 254.6 L 593.8 251.2 L 594.6 249.8 L 597.0 249.6 L 597.3 247.0 L 596.0 247.6 L 593.5 243.6 L 590.7 243.6 L 590.0 244.6 L 583.5 241.6 L 579.1 247.1 L 572.8 247.2 L 569.2 251.9 L 568.2 250.5 L 567.2 253.3 L 564.7 253.6 L 561.8 260.1 L 559.8 260.7 L 557.8 263.9 L 559.8 266.9 L 558.4 272.4 L 565.5 268.7 L 565.4 270.3 L 559.9 273.4 L 558.6 276.1 L 556.0 277.0 L 553.3 281.4 L 557.3 282.5 L 560.5 287.2 L 567.4 287.4 L 568.2 286.5 Z"></path>
  <path id="henan" class="province" d="M 532.7 313.2 L 537.5 312.3 L 539.7 314.2 L 542.7 312.6 L 542.6 316.4 L 543.9 319.2 L 544.9 319.0 L 545.2 320.2 L 547.2 319.0 L 548.2 320.2 L 551.0 320.1 L 550.8 322.4 L 553.4 323.6 L 556.7 321.9 L 558.1 324.4 L 560.0 321.1 L 563.8 319.9 L 564.0 310.7 L 561.3 312.6 L 559.1 310.7 L 557.1 310.5 L 557.0 307.4 L 554.0 305.8 L 554.2 304.2 L 558.1 303.9 L 558.5 299.8 L 561.4 298.8 L 561.1 293.6 L 564.5 293.8 L 565.7 296.5 L 567.5 297.1 L 571.2 295.1 L 570.1 292.5 L 570.6 290.8 L 568.6 290.8 L 565.9 286.7 L 560.2 287.0 L 559.3 284.3 L 557.6 283.8 L 557.3 282.5 L 553.3 281.4 L 555.5 277.5 L 558.6 276.1 L 559.9 273.4 L 565.4 270.3 L 565.9 268.6 L 558.7 272.6 L 559.7 267.9 L 558.2 268.9 L 556.3 267.4 L 554.3 269.3 L 554.2 268.2 L 551.1 268.5 L 548.7 266.8 L 542.6 265.5 L 541.6 274.4 L 540.8 274.1 L 538.5 276.9 L 537.3 276.6 L 536.7 278.0 L 535.4 277.6 L 533.2 279.5 L 526.2 278.6 L 526.2 281.3 L 523.8 281.2 L 521.4 283.9 L 517.3 284.3 L 514.1 286.6 L 509.7 286.8 L 510.9 289.9 L 510.3 291.0 L 512.3 292.0 L 511.8 295.2 L 515.9 298.9 L 515.7 302.7 L 518.4 305.6 L 518.3 307.1 L 521.5 310.4 L 527.2 313.0 L 532.0 313.1 Z"></path>
  <path id="hubei" class="province" d="M 516.3 303.7 L 515.4 302.7 L 512.9 304.6 L 511.7 302.8 L 508.1 303.8 L 502.3 302.5 L 500.5 303.9 L 504.0 304.9 L 503.9 307.1 L 507.0 307.7 L 508.0 310.0 L 506.2 311.0 L 502.4 310.4 L 501.0 313.9 L 502.3 316.1 L 501.9 320.5 L 503.4 320.8 L 503.3 322.6 L 507.2 324.2 L 507.7 329.1 L 506.8 331.2 L 505.0 330.0 L 499.7 334.7 L 499.1 333.1 L 497.6 334.3 L 496.6 332.8 L 494.3 334.7 L 493.1 333.6 L 491.9 334.9 L 490.5 334.7 L 490.3 336.0 L 492.1 337.4 L 491.4 341.6 L 490.0 342.1 L 490.6 343.2 L 492.8 341.9 L 493.1 343.8 L 495.2 344.7 L 495.4 347.9 L 496.8 347.0 L 498.5 350.2 L 501.2 344.5 L 502.7 344.8 L 503.8 343.0 L 507.1 342.6 L 509.7 344.4 L 512.3 342.8 L 510.9 339.6 L 513.0 339.9 L 513.3 339.0 L 518.2 339.8 L 519.7 341.2 L 523.8 341.4 L 526.3 343.9 L 528.0 344.1 L 528.5 345.7 L 530.0 344.4 L 532.5 344.8 L 534.1 342.7 L 534.9 343.8 L 535.7 342.8 L 534.6 344.7 L 536.2 346.6 L 541.1 342.0 L 540.8 343.9 L 542.0 343.8 L 542.7 345.0 L 541.7 345.7 L 542.9 346.5 L 541.5 348.7 L 542.3 350.7 L 544.3 351.2 L 545.9 349.2 L 547.8 348.9 L 548.3 347.4 L 554.1 347.1 L 554.6 346.3 L 553.7 346.2 L 555.1 345.1 L 556.6 345.8 L 556.2 343.8 L 557.9 344.6 L 560.1 342.1 L 564.0 343.4 L 566.3 342.3 L 565.6 337.9 L 564.0 336.7 L 564.0 334.4 L 562.6 332.5 L 565.5 328.7 L 562.0 326.5 L 560.9 327.2 L 558.8 324.2 L 557.6 324.4 L 556.7 321.9 L 553.4 323.6 L 550.8 322.4 L 551.0 320.1 L 548.2 320.2 L 547.2 319.0 L 545.2 320.2 L 542.9 317.5 L 542.7 312.6 L 539.7 314.2 L 537.5 312.3 L 528.9 313.6 L 521.5 310.4 L 516.7 303.6 Z"></path>
  <path id="hunan" class="province" d="M 525.9 398.5 L 527.3 397.2 L 527.5 393.7 L 532.1 394.2 L 533.3 396.8 L 534.2 396.8 L 535.4 396.4 L 535.8 393.5 L 534.0 392.0 L 534.7 392.4 L 537.7 390.1 L 541.2 392.3 L 543.5 392.1 L 545.1 389.9 L 544.4 388.0 L 545.4 384.6 L 547.6 383.1 L 544.9 383.1 L 546.4 378.5 L 543.9 377.5 L 544.6 374.4 L 543.0 372.7 L 544.0 369.5 L 541.5 370.0 L 541.1 367.8 L 542.8 363.5 L 545.5 362.4 L 545.2 360.9 L 547.8 358.3 L 546.1 356.5 L 546.8 353.5 L 544.7 351.0 L 542.3 350.7 L 541.5 348.7 L 542.9 346.5 L 541.7 345.7 L 542.7 345.0 L 542.0 343.8 L 540.8 343.9 L 541.1 342.0 L 536.2 346.6 L 534.6 344.7 L 535.7 342.8 L 534.9 343.8 L 534.1 342.7 L 532.5 344.8 L 530.0 344.4 L 528.5 345.7 L 528.0 344.1 L 526.3 343.9 L 523.8 341.4 L 519.7 341.2 L 518.2 339.8 L 513.3 339.0 L 513.0 339.9 L 510.9 339.6 L 512.3 342.8 L 511.5 343.5 L 509.7 344.4 L 507.1 342.6 L 503.8 343.0 L 503.2 344.6 L 501.2 344.5 L 498.7 349.0 L 499.1 354.4 L 498.1 355.6 L 499.3 356.3 L 498.8 359.0 L 500.0 359.7 L 499.1 363.2 L 500.7 367.5 L 499.1 369.1 L 497.6 368.8 L 494.1 372.9 L 495.6 373.6 L 496.5 372.6 L 500.8 372.3 L 501.6 374.4 L 500.5 375.0 L 502.0 376.5 L 499.0 377.1 L 500.2 378.9 L 498.8 381.2 L 500.8 381.3 L 500.6 384.2 L 503.3 384.9 L 502.9 386.1 L 504.1 386.1 L 503.9 384.8 L 505.7 382.6 L 508.5 385.2 L 512.0 381.1 L 514.2 382.0 L 515.6 380.5 L 518.5 381.8 L 517.7 385.3 L 518.3 386.2 L 520.6 386.3 L 518.8 387.8 L 519.0 390.0 L 515.8 393.9 L 515.5 395.9 L 516.8 396.2 L 518.5 394.0 L 520.4 395.4 L 520.3 399.3 L 521.4 399.5 L 522.8 397.9 L 525.2 398.1 Z"></path>
  <path id="guangdong" class="province" d="M 540.9 425.5 L 542.0 423.4 L 541.1 423.4 L 542.7 422.1 L 542.1 420.1 L 544.2 423.1 L 549.0 421.4 L 550.3 423.1 L 551.3 422.7 L 550.3 420.8 L 552.3 419.4 L 552.6 421.6 L 554.0 422.1 L 557.0 419.1 L 560.8 420.9 L 561.5 418.6 L 563.2 420.0 L 567.9 417.7 L 569.9 417.9 L 570.5 415.7 L 572.9 415.0 L 573.7 411.8 L 576.6 410.4 L 574.3 407.3 L 574.7 404.5 L 572.4 400.6 L 572.9 399.4 L 570.1 399.9 L 568.8 397.0 L 567.3 397.9 L 566.8 397.0 L 563.2 396.6 L 562.5 398.4 L 563.4 400.4 L 561.9 400.6 L 559.2 397.9 L 549.5 401.2 L 546.9 399.0 L 548.6 398.4 L 550.8 394.8 L 552.5 394.3 L 552.3 392.2 L 550.6 391.1 L 545.7 392.9 L 545.3 390.8 L 541.2 392.3 L 537.9 390.1 L 534.7 392.4 L 534.0 392.0 L 535.8 393.5 L 535.4 396.4 L 533.3 396.8 L 532.1 394.2 L 527.5 393.7 L 527.3 397.2 L 525.0 399.0 L 526.2 402.8 L 524.4 404.0 L 525.1 406.6 L 523.8 408.5 L 522.2 408.2 L 521.9 410.3 L 520.6 410.5 L 519.7 412.1 L 519.3 418.3 L 513.4 421.9 L 513.7 424.8 L 512.7 426.0 L 509.4 425.7 L 509.8 428.9 L 506.0 429.0 L 505.2 431.3 L 503.8 431.3 L 503.9 433.5 L 505.1 433.8 L 503.6 434.7 L 502.6 439.1 L 505.3 446.6 L 509.4 446.1 L 511.4 443.9 L 509.9 440.3 L 508.1 439.8 L 507.8 438.5 L 510.1 436.3 L 516.2 433.7 L 525.4 432.0 L 525.2 430.9 L 527.0 430.0 L 529.1 430.9 L 530.0 429.9 L 532.0 430.3 L 533.4 428.6 L 534.8 429.5 L 536.3 426.4 L 538.1 429.1 L 541.0 427.0 L 540.8 425.6 Z M 575.0 412.5 L 576.2 412.9 L 576.0 412.0 L 575.0 412.4 Z M 534.0 430.5 L 532.6 431.2 L 533.3 432.4 L 533.8 430.6 Z M 530.9 432.2 L 532.2 431.6 L 532.2 430.8 L 530.9 431.7 Z M 510.3 436.5 L 511.3 437.5 L 512.2 436.1 L 510.2 436.4 Z M 511.1 437.5 L 509.0 437.4 L 508.0 439.0 L 511.3 439.2 L 511.5 437.7 Z M 572.5 440.7 L 573.7 441.7 L 572.3 442.5 L 573.4 442.7 L 574.0 441.2 L 573.0 440.6 Z M 512.3 439.0 L 511.4 439.3 L 512.3 439.2 Z M 564.4 437.3 L 565.6 437.9 L 564.6 437.0 Z M 564.2 438.5 L 564.9 439.2 L 564.5 438.3 Z"></path>
  <path id="guangxi" class="province" d="M 500.9 384.4 L 499.5 387.7 L 497.1 386.9 L 495.2 387.9 L 496.9 387.8 L 496.4 390.1 L 493.1 388.9 L 492.5 392.3 L 489.8 389.8 L 487.9 390.8 L 487.5 393.4 L 484.0 394.3 L 483.0 392.2 L 481.2 393.3 L 478.5 389.0 L 476.2 390.9 L 476.3 393.1 L 468.1 396.1 L 468.4 398.2 L 466.9 399.6 L 459.0 395.7 L 454.2 399.8 L 452.3 398.6 L 452.2 400.7 L 454.0 403.0 L 454.1 401.7 L 457.3 401.7 L 458.7 402.7 L 459.4 405.8 L 460.0 405.2 L 461.7 406.3 L 462.7 405.0 L 464.7 406.2 L 466.7 405.1 L 468.6 407.7 L 467.4 411.9 L 465.3 411.5 L 463.1 412.8 L 463.8 413.7 L 462.1 414.7 L 462.5 416.4 L 465.5 418.0 L 468.2 417.3 L 470.3 418.7 L 471.9 417.7 L 474.9 419.3 L 472.2 423.0 L 473.5 425.0 L 473.6 428.2 L 476.5 428.3 L 476.7 429.7 L 479.6 430.6 L 480.3 432.1 L 485.0 431.5 L 487.4 433.0 L 488.7 432.0 L 488.6 433.2 L 492.5 431.2 L 497.5 432.4 L 496.6 433.9 L 498.0 434.2 L 501.4 433.7 L 502.2 432.5 L 503.9 433.5 L 503.5 431.8 L 505.2 431.3 L 505.5 429.4 L 509.8 428.9 L 509.4 425.7 L 512.7 426.0 L 513.7 424.8 L 513.4 421.9 L 519.3 418.3 L 519.7 412.1 L 520.6 410.5 L 521.9 410.3 L 522.2 408.2 L 523.8 408.5 L 525.1 406.6 L 524.4 404.5 L 526.2 402.8 L 524.9 399.7 L 525.9 398.5 L 522.8 397.9 L 521.4 399.5 L 520.3 399.3 L 520.4 395.4 L 518.5 394.0 L 516.8 396.2 L 515.5 395.9 L 515.8 393.9 L 519.0 390.0 L 518.8 387.8 L 520.6 386.3 L 518.3 386.2 L 517.7 385.3 L 518.5 381.8 L 515.6 380.5 L 514.2 382.0 L 512.0 381.1 L 508.5 385.2 L 505.7 382.6 L 503.8 386.2 L 502.4 384.2 L 501.2 384.8 Z"></path>
  <path id="hainan" class="province" d="M 507.0 448.5 L 502.6 448.7 L 501.1 450.2 L 499.1 449.7 L 492.7 455.6 L 492.7 464.6 L 501.9 468.1 L 503.5 467.6 L 503.9 466.1 L 506.7 465.7 L 508.4 463.3 L 510.9 462.9 L 512.6 456.3 L 516.4 452.9 L 516.2 451.3 L 515.5 448.6 L 512.8 447.1 L 507.4 448.0 Z M 520.4 479.1 L 521.1 478.7 L 520.3 479.0 Z M 581.7 498.5 L 581.9 499.3 L 582.9 499.2 L 582.1 498.1 L 583.0 498.7 L 581.8 498.1 Z M 522.2 487.5 L 521.8 488.6 L 522.5 487.5 Z M 544.3 574.4 L 545.9 575.1 L 549.3 573.7 L 550.7 571.6 L 549.9 570.9 L 544.5 574.1 Z M 545.1 561.9 L 545.6 562.8 L 545.2 561.8 Z M 525.4 486.8 L 526.4 486.8 L 525.7 486.6 Z M 563.3 553.6 L 564.0 553.9 L 563.7 552.9 Z M 500.7 577.1 L 503.1 575.4 L 505.4 575.5 L 503.3 574.8 L 501.4 576.0 Z M 530.3 490.1 L 531.4 489.4 L 530.0 490.1 Z M 569.7 546.7 L 569.5 547.6 L 571.3 547.3 L 570.1 546.4 Z M 560.0 551.7 L 560.9 551.7 L 560.2 551.3 Z M 556.8 566.7 L 557.9 567.4 L 557.1 566.6 Z M 544.3 570.5 L 545.0 571.1 L 544.7 570.4 Z M 505.4 572.1 L 506.8 571.6 L 505.5 571.7 Z M 572.1 535.7 L 572.4 536.4 L 572.2 535.5 Z M 530.6 485.4 L 531.4 484.8 L 530.5 485.1 Z M 552.2 488.4 L 553.3 488.1 L 552.2 488.1 Z M 510.5 569.4 L 511.9 569.0 L 510.5 569.3 Z M 524.9 569.9 L 525.8 569.9 L 525.2 569.5 Z M 577.4 543.8 L 578.7 544.0 L 577.6 543.3 Z M 543.6 457.6 L 544.5 456.9 L 543.3 457.2 Z M 522.1 571.5 L 522.8 571.7 L 522.2 571.2 Z M 531.4 594.7 L 531.7 595.6 L 531.7 594.6 Z"></path>
  <path id="chongqing" class="province" d="M 470.4 356.9 L 471.7 356.6 L 471.4 353.4 L 473.1 355.5 L 472.3 357.3 L 473.7 357.7 L 474.1 355.9 L 475.2 355.8 L 474.8 354.3 L 476.4 354.1 L 476.7 352.9 L 478.6 353.0 L 479.0 354.2 L 480.3 353.2 L 480.5 349.5 L 483.9 349.3 L 485.0 352.0 L 487.0 350.6 L 489.4 350.7 L 489.6 355.1 L 492.6 355.8 L 492.0 358.9 L 492.9 359.0 L 493.3 357.1 L 493.6 360.2 L 497.0 360.7 L 499.3 356.3 L 498.1 355.6 L 499.1 354.7 L 498.5 352.9 L 499.3 351.1 L 497.5 349.6 L 496.8 347.0 L 495.4 347.9 L 495.2 344.7 L 493.1 343.8 L 492.8 341.9 L 491.3 343.6 L 490.0 342.1 L 491.4 341.6 L 492.1 337.4 L 490.4 335.3 L 493.1 333.6 L 494.3 334.7 L 496.6 332.8 L 497.6 334.3 L 499.1 333.1 L 499.7 334.7 L 505.0 330.0 L 506.8 331.2 L 507.6 325.2 L 505.7 323.0 L 503.3 322.6 L 503.4 320.8 L 498.9 320.6 L 497.0 318.2 L 490.3 315.1 L 490.8 316.3 L 488.9 317.7 L 491.7 321.2 L 488.2 323.2 L 488.2 325.0 L 486.7 326.0 L 486.9 328.3 L 485.8 329.0 L 486.3 329.9 L 484.9 331.2 L 483.8 330.2 L 481.3 330.7 L 480.7 331.8 L 481.6 332.9 L 477.1 339.8 L 473.9 340.0 L 472.2 336.7 L 469.0 338.1 L 468.4 336.8 L 465.0 335.3 L 464.0 337.4 L 463.0 337.1 L 463.4 337.9 L 462.2 338.5 L 464.3 340.1 L 464.1 341.5 L 459.8 345.1 L 460.2 346.6 L 461.4 348.3 L 463.7 348.3 L 464.7 352.3 L 468.7 352.6 L 470.0 356.6 Z"></path>
  <path id="sichuan" class="province" d="M 419.2 371.6 L 418.9 373.5 L 421.2 375.1 L 421.4 376.8 L 422.6 376.3 L 421.5 378.3 L 423.9 380.5 L 423.8 382.3 L 425.8 384.3 L 428.5 384.0 L 433.0 380.8 L 434.4 382.5 L 437.2 380.7 L 437.8 378.7 L 436.2 374.8 L 436.1 370.5 L 436.7 369.3 L 438.6 369.1 L 442.0 365.0 L 442.7 363.0 L 441.5 362.2 L 442.9 360.1 L 444.1 360.5 L 445.9 359.2 L 444.9 356.9 L 445.6 355.3 L 451.2 355.7 L 449.6 356.7 L 449.8 358.9 L 451.6 360.0 L 451.5 361.5 L 450.1 362.2 L 452.7 364.5 L 455.8 363.7 L 457.5 361.6 L 459.5 362.8 L 459.9 366.0 L 461.9 365.3 L 463.0 366.4 L 469.7 364.8 L 468.7 361.2 L 465.7 361.4 L 465.0 359.3 L 463.2 359.1 L 463.0 356.9 L 465.6 356.1 L 466.4 354.2 L 470.4 357.4 L 468.7 352.6 L 464.7 352.3 L 463.7 348.3 L 461.4 348.3 L 460.2 346.6 L 459.8 345.1 L 464.1 341.5 L 464.3 340.1 L 462.2 338.5 L 465.0 335.3 L 468.4 336.8 L 469.0 338.1 L 472.2 336.7 L 473.9 340.0 L 477.1 339.8 L 481.6 332.9 L 480.7 331.8 L 481.3 330.7 L 483.8 330.2 L 484.9 331.2 L 486.3 329.9 L 485.8 329.0 L 486.9 328.3 L 486.7 326.0 L 488.2 325.0 L 488.2 323.2 L 491.7 321.2 L 488.9 317.7 L 490.0 317.5 L 489.7 316.6 L 490.8 316.3 L 490.0 315.3 L 491.3 314.5 L 488.7 314.2 L 486.2 315.6 L 483.2 312.7 L 481.0 312.5 L 480.8 311.2 L 478.6 312.4 L 477.2 309.1 L 473.9 308.7 L 470.8 310.2 L 467.9 309.0 L 467.1 307.3 L 462.7 309.2 L 461.5 306.5 L 460.6 307.1 L 461.3 308.8 L 458.7 310.2 L 453.4 309.6 L 450.0 307.6 L 449.9 306.4 L 451.2 305.6 L 450.4 305.2 L 450.0 302.1 L 451.2 301.9 L 449.2 300.9 L 448.8 298.6 L 447.5 297.6 L 442.4 297.7 L 442.3 296.2 L 440.7 296.9 L 438.9 296.2 L 439.0 293.0 L 436.4 290.2 L 433.3 292.2 L 433.8 293.0 L 428.8 294.3 L 432.1 299.3 L 432.0 300.4 L 429.3 301.7 L 429.4 303.1 L 428.6 302.3 L 425.7 304.3 L 425.2 302.5 L 426.9 300.5 L 425.9 298.6 L 424.1 301.2 L 424.8 302.4 L 423.8 304.5 L 422.4 303.0 L 421.3 303.9 L 420.5 302.6 L 418.8 303.1 L 418.8 306.7 L 419.9 307.7 L 419.1 309.6 L 416.9 310.4 L 414.6 309.5 L 414.1 311.2 L 411.7 308.5 L 410.3 308.7 L 409.8 310.3 L 408.9 309.9 L 409.0 307.6 L 406.6 305.2 L 405.0 308.8 L 400.6 307.1 L 399.9 305.3 L 395.6 302.4 L 394.6 298.1 L 392.1 295.5 L 392.1 292.9 L 387.1 291.4 L 384.8 292.4 L 384.5 294.9 L 382.0 296.1 L 382.4 298.6 L 385.7 300.9 L 383.1 303.7 L 383.5 305.8 L 381.7 306.9 L 383.0 309.7 L 390.3 313.4 L 392.4 317.2 L 392.2 319.3 L 396.8 324.6 L 395.7 326.0 L 394.5 325.0 L 394.0 326.7 L 397.5 331.5 L 399.6 358.0 L 401.6 360.7 L 401.9 356.6 L 405.0 353.3 L 405.4 354.9 L 409.5 359.1 L 408.0 361.1 L 410.8 364.3 L 410.8 365.8 L 414.5 363.6 L 418.0 371.3 L 419.2 371.6 Z"></path>
  <path id="guizhou" class="province" d="M 498.9 357.2 L 497.0 360.7 L 493.9 360.3 L 493.3 357.1 L 492.9 359.0 L 492.0 358.9 L 492.6 355.8 L 489.6 355.1 L 489.4 350.7 L 487.0 350.6 L 485.0 352.0 L 483.9 349.3 L 480.9 349.2 L 480.3 353.2 L 479.0 354.2 L 478.6 353.0 L 476.7 352.9 L 476.4 354.1 L 474.8 354.3 L 475.2 355.8 L 474.1 355.9 L 473.7 357.7 L 472.3 357.3 L 473.1 355.5 L 471.4 353.4 L 471.7 356.6 L 470.7 356.4 L 470.4 357.4 L 466.4 354.2 L 465.6 356.1 L 463.0 356.9 L 463.2 359.1 L 465.0 359.3 L 465.7 361.4 L 468.1 360.9 L 469.3 362.0 L 470.0 364.3 L 469.1 365.3 L 463.0 366.4 L 461.9 365.3 L 460.4 365.5 L 458.7 369.7 L 457.6 369.2 L 455.6 370.6 L 452.4 370.2 L 450.6 368.6 L 448.8 370.9 L 446.4 368.9 L 443.1 373.1 L 444.9 374.3 L 444.2 376.1 L 445.3 379.0 L 447.7 379.1 L 448.3 377.8 L 450.5 378.0 L 451.2 377.0 L 453.6 380.0 L 450.1 388.6 L 451.3 390.5 L 452.5 390.0 L 453.3 392.4 L 455.2 393.1 L 453.1 395.0 L 454.1 395.7 L 452.3 398.6 L 454.2 399.8 L 459.0 395.7 L 466.9 399.6 L 468.4 398.2 L 468.1 396.1 L 476.3 393.1 L 476.2 390.9 L 478.5 389.0 L 481.2 393.3 L 483.0 392.2 L 484.8 394.4 L 487.5 393.4 L 487.9 390.8 L 489.4 389.9 L 492.5 392.3 L 493.1 388.9 L 496.4 390.1 L 496.9 387.8 L 495.2 387.9 L 497.1 386.9 L 499.5 387.7 L 501.2 383.4 L 500.8 381.3 L 498.8 381.2 L 500.2 378.9 L 499.0 377.1 L 501.0 376.4 L 501.3 373.1 L 500.3 372.1 L 495.6 373.6 L 494.1 372.9 L 497.6 368.8 L 499.1 369.1 L 500.7 367.5 L 499.1 363.2 L 500.0 359.7 L 498.9 359.2 L 498.7 357.5 Z M 500.9 375.7 L 501.3 376.6 L 500.8 375.6 Z"></path>
  <path id="yunnan" class="province" d="M 459.9 366.0 L 459.5 362.8 L 457.5 361.6 L 455.8 363.7 L 452.1 364.1 L 450.1 362.2 L 451.5 361.5 L 451.5 359.7 L 449.6 358.2 L 449.6 356.7 L 451.2 355.7 L 445.6 355.3 L 444.9 356.9 L 445.9 359.2 L 444.1 360.5 L 442.9 360.1 L 441.5 362.2 L 442.7 363.0 L 442.0 365.0 L 438.6 369.1 L 436.7 369.3 L 436.1 370.5 L 436.2 374.8 L 437.8 378.7 L 437.0 381.0 L 434.4 382.5 L 433.0 380.8 L 428.5 384.0 L 425.8 384.3 L 421.5 378.3 L 422.6 376.3 L 421.4 376.8 L 421.2 375.1 L 418.9 373.5 L 419.2 371.6 L 418.0 371.3 L 414.5 363.6 L 413.1 364.8 L 412.1 364.2 L 411.0 365.8 L 410.8 364.3 L 409.4 363.7 L 408.0 361.1 L 409.5 359.1 L 405.4 354.9 L 405.0 353.3 L 401.9 356.6 L 402.0 359.4 L 401.6 360.7 L 401.0 360.2 L 399.6 358.0 L 399.1 349.1 L 397.8 349.2 L 397.7 353.4 L 396.5 353.8 L 395.9 351.6 L 394.3 352.0 L 395.1 360.2 L 392.0 361.4 L 391.1 358.4 L 389.5 361.1 L 391.2 368.1 L 392.5 366.4 L 395.1 367.7 L 395.8 378.0 L 395.2 383.4 L 393.8 383.5 L 395.1 386.3 L 393.3 386.5 L 391.2 389.8 L 389.8 388.9 L 389.5 391.5 L 387.5 393.3 L 386.6 392.7 L 385.4 394.8 L 386.1 397.3 L 383.7 398.5 L 383.5 401.7 L 384.9 401.6 L 384.8 403.3 L 385.8 403.7 L 383.5 407.1 L 384.7 408.2 L 389.0 405.5 L 396.7 404.8 L 394.7 406.9 L 394.7 408.6 L 396.8 410.5 L 396.0 411.4 L 397.1 412.6 L 396.9 414.9 L 399.0 416.2 L 403.1 416.5 L 403.5 417.9 L 402.3 417.9 L 401.0 420.0 L 401.7 422.6 L 399.5 426.1 L 407.5 427.2 L 407.7 430.9 L 409.1 431.0 L 409.1 433.0 L 410.1 433.4 L 412.1 432.7 L 413.5 433.6 L 418.8 430.2 L 419.8 435.9 L 425.1 436.8 L 425.7 431.8 L 423.0 425.3 L 424.2 422.7 L 426.5 423.7 L 430.1 423.3 L 432.4 419.6 L 437.5 423.1 L 440.4 419.2 L 442.4 421.5 L 443.5 419.3 L 446.7 422.5 L 448.2 419.2 L 449.6 418.8 L 450.8 420.5 L 452.9 418.8 L 454.3 419.0 L 455.7 415.4 L 459.2 414.3 L 460.1 413.0 L 462.2 415.2 L 463.8 413.7 L 463.1 412.8 L 465.3 411.5 L 466.7 412.4 L 468.1 411.1 L 468.6 407.7 L 466.7 405.1 L 464.7 406.2 L 462.7 405.0 L 461.7 406.3 L 460.0 405.2 L 459.4 405.8 L 457.9 402.0 L 454.6 401.5 L 454.0 403.0 L 452.7 401.9 L 451.9 399.4 L 454.1 395.7 L 453.1 395.0 L 455.2 393.1 L 453.3 392.4 L 452.5 390.0 L 451.3 390.5 L 450.1 388.6 L 453.6 380.0 L 451.2 377.0 L 450.5 378.0 L 448.3 377.8 L 447.7 379.1 L 445.3 379.0 L 444.2 376.1 L 444.9 374.3 L 443.1 373.1 L 446.4 368.9 L 448.8 370.9 L 450.6 368.6 L 452.4 370.2 L 455.6 370.6 L 457.6 369.2 L 458.7 369.7 L 459.8 366.8 Z"></path>
  <path id="xizang" class="province" d="M 306.7 268.8 L 299.0 265.5 L 297.4 266.4 L 294.5 264.1 L 285.7 265.8 L 284.3 264.7 L 281.6 266.3 L 273.0 267.9 L 270.8 271.8 L 266.5 274.2 L 263.1 272.5 L 261.0 272.9 L 252.2 277.7 L 242.0 277.2 L 240.5 274.0 L 235.6 273.4 L 231.3 276.6 L 231.3 278.1 L 227.9 279.2 L 222.1 277.1 L 220.8 278.3 L 215.6 276.6 L 214.0 278.4 L 214.9 279.5 L 211.6 281.6 L 209.4 288.2 L 201.9 288.9 L 200.8 292.1 L 198.2 292.9 L 199.3 297.1 L 198.4 298.0 L 203.0 303.5 L 204.5 310.4 L 201.2 313.5 L 199.4 311.8 L 199.0 309.2 L 195.9 310.8 L 196.7 313.9 L 195.9 315.1 L 199.2 317.9 L 198.1 319.4 L 200.0 321.8 L 199.0 322.7 L 199.1 324.8 L 202.5 328.9 L 204.8 329.2 L 205.5 328.0 L 207.4 329.7 L 208.1 329.1 L 210.5 330.8 L 211.8 333.4 L 217.6 335.0 L 221.5 337.5 L 222.5 340.1 L 223.7 340.1 L 223.8 338.5 L 225.0 338.0 L 225.3 335.5 L 232.0 336.3 L 232.7 339.5 L 236.5 340.8 L 239.1 343.8 L 243.4 345.1 L 246.7 349.6 L 249.8 347.9 L 251.8 348.3 L 252.9 352.8 L 255.4 354.5 L 259.0 356.4 L 261.0 355.2 L 262.4 355.8 L 261.6 358.9 L 266.3 359.9 L 267.5 358.6 L 270.3 363.8 L 271.5 363.6 L 271.1 361.7 L 272.1 360.9 L 272.5 363.0 L 274.3 363.8 L 275.9 361.6 L 277.1 361.6 L 282.3 364.8 L 287.2 364.9 L 288.2 363.5 L 291.0 364.2 L 291.4 363.2 L 296.2 361.5 L 298.2 362.7 L 297.6 368.6 L 299.6 371.5 L 301.5 369.7 L 300.7 368.6 L 302.1 365.0 L 307.5 360.0 L 315.4 362.5 L 316.4 361.9 L 320.5 364.4 L 322.4 362.1 L 325.4 363.9 L 325.1 367.8 L 329.3 368.5 L 330.4 370.8 L 329.5 372.6 L 330.3 375.4 L 335.6 374.3 L 340.1 375.1 L 347.0 373.5 L 351.6 367.4 L 357.5 365.6 L 361.5 363.4 L 362.6 361.1 L 365.9 359.7 L 371.2 360.2 L 379.3 365.6 L 380.8 363.9 L 382.1 364.0 L 381.7 360.1 L 383.4 359.1 L 383.9 356.7 L 389.5 361.1 L 391.1 358.4 L 392.0 361.4 L 395.1 360.2 L 394.3 352.0 L 395.9 351.6 L 396.5 353.8 L 397.7 353.4 L 397.6 349.7 L 399.1 349.1 L 397.9 343.9 L 398.6 341.0 L 397.5 331.5 L 394.0 326.7 L 394.5 325.0 L 395.7 326.0 L 396.8 324.6 L 392.2 319.3 L 392.4 317.2 L 390.3 313.4 L 386.1 311.3 L 381.8 310.8 L 382.5 313.6 L 381.3 313.9 L 381.3 316.4 L 378.4 316.5 L 377.0 317.7 L 375.6 317.2 L 376.1 321.1 L 373.1 320.0 L 372.3 318.3 L 370.3 318.4 L 371.0 320.8 L 370.0 321.9 L 368.3 319.5 L 366.8 321.0 L 363.7 320.2 L 362.2 317.8 L 363.0 315.5 L 361.8 315.6 L 361.0 313.6 L 359.4 314.1 L 361.2 313.3 L 360.8 312.7 L 357.8 312.5 L 354.9 309.5 L 350.2 312.3 L 346.1 310.6 L 344.1 311.8 L 341.4 309.6 L 339.7 310.1 L 339.2 308.8 L 331.7 309.0 L 331.2 307.3 L 328.8 307.8 L 324.6 304.5 L 318.4 304.7 L 313.1 302.4 L 309.7 299.2 L 309.0 296.3 L 306.0 293.3 L 308.2 290.1 L 306.9 286.1 L 308.3 284.3 L 307.5 282.9 L 305.4 283.2 L 305.6 280.7 L 304.2 279.3 L 304.6 277.7 L 307.2 276.2 L 306.6 275.4 L 307.6 271.8 L 305.1 271.7 L 303.7 269.7 L 306.5 268.8 Z"></path>
  <path id="shaanxi" class="province" d="M 509.7 286.8 L 508.3 285.7 L 508.3 283.4 L 512.0 274.4 L 510.4 267.9 L 510.9 262.8 L 509.9 261.7 L 509.8 257.4 L 512.8 254.2 L 512.3 252.3 L 513.8 250.8 L 513.2 248.2 L 511.1 245.9 L 511.0 242.9 L 514.6 239.7 L 515.6 233.2 L 518.3 228.9 L 516.4 227.7 L 517.2 225.3 L 514.5 226.5 L 512.9 229.3 L 511.1 227.9 L 509.8 228.8 L 507.5 227.0 L 508.1 229.2 L 505.6 230.1 L 505.0 229.3 L 505.2 231.4 L 496.7 239.9 L 495.6 242.7 L 496.9 245.0 L 495.5 246.3 L 494.2 244.7 L 494.0 249.3 L 487.7 250.0 L 486.2 248.0 L 483.3 246.7 L 479.6 250.2 L 479.6 258.8 L 485.4 260.8 L 486.9 262.7 L 488.5 262.2 L 490.9 264.8 L 491.4 264.2 L 492.8 265.2 L 493.1 269.7 L 491.3 271.5 L 492.4 278.0 L 485.9 279.0 L 483.9 278.2 L 482.9 279.1 L 485.0 282.0 L 481.7 283.1 L 479.0 283.4 L 475.6 280.9 L 472.0 281.0 L 472.4 284.7 L 469.8 287.0 L 473.8 289.5 L 473.1 291.0 L 471.9 290.4 L 472.5 292.1 L 470.7 295.0 L 472.4 298.9 L 472.0 299.7 L 471.1 298.5 L 468.5 299.3 L 466.4 298.5 L 465.0 301.2 L 463.9 301.2 L 466.4 303.3 L 465.9 305.8 L 461.8 306.7 L 462.7 309.2 L 467.1 307.3 L 467.9 309.0 L 470.8 310.2 L 473.9 308.7 L 477.2 309.1 L 477.3 311.0 L 479.1 312.7 L 480.8 311.2 L 481.0 312.5 L 483.2 312.7 L 486.2 315.6 L 491.0 314.2 L 497.0 318.2 L 498.9 320.6 L 501.9 320.5 L 502.3 316.1 L 501.0 313.9 L 502.4 310.4 L 506.2 311.0 L 508.0 310.0 L 507.0 307.7 L 503.9 307.1 L 504.0 304.9 L 500.5 303.9 L 501.2 302.9 L 509.3 303.8 L 511.3 302.7 L 512.9 304.6 L 516.1 301.8 L 515.9 298.9 L 511.8 295.2 L 512.3 292.0 L 510.3 291.0 L 510.9 289.9 L 509.6 287.2 Z"></path>
  <path id="gansu" class="province" d="M 471.7 273.1 L 471.6 277.6 L 470.3 279.1 L 468.4 276.7 L 467.8 277.6 L 467.4 276.4 L 465.7 277.0 L 467.2 276.0 L 465.2 276.1 L 463.7 273.6 L 464.3 273.3 L 460.6 272.4 L 460.3 269.5 L 461.9 268.1 L 459.4 263.2 L 458.9 261.4 L 460.2 260.2 L 458.5 257.8 L 456.4 257.2 L 454.7 254.7 L 453.3 255.2 L 453.7 252.7 L 448.9 252.7 L 444.0 248.1 L 441.2 247.1 L 440.9 244.2 L 442.5 243.4 L 441.3 240.3 L 445.7 237.3 L 449.0 232.9 L 447.5 229.0 L 447.9 227.5 L 445.6 226.9 L 440.6 228.6 L 437.3 231.5 L 431.9 229.5 L 426.5 231.4 L 425.8 231.7 L 428.2 234.1 L 425.2 237.1 L 420.8 235.6 L 419.8 232.5 L 417.3 233.5 L 416.0 232.5 L 416.0 227.6 L 412.7 227.7 L 410.2 224.1 L 406.0 221.8 L 402.3 221.5 L 406.2 219.9 L 409.4 216.5 L 410.1 210.8 L 408.3 208.3 L 399.7 209.0 L 399.0 211.3 L 397.8 210.0 L 395.9 211.0 L 396.0 212.2 L 394.7 210.1 L 391.5 212.7 L 391.4 208.2 L 387.9 205.9 L 384.5 201.4 L 386.6 198.5 L 380.0 183.4 L 372.3 184.3 L 369.5 186.0 L 368.3 188.2 L 370.2 191.1 L 369.0 194.9 L 364.3 196.7 L 361.6 199.7 L 360.0 197.0 L 356.2 200.1 L 354.1 200.5 L 348.9 205.6 L 346.5 211.5 L 338.3 212.7 L 335.5 226.3 L 332.5 229.8 L 332.8 232.0 L 340.2 230.5 L 340.8 233.7 L 346.2 233.7 L 347.7 234.4 L 346.4 235.2 L 347.7 236.3 L 352.5 235.8 L 354.4 240.9 L 358.4 240.0 L 363.1 241.7 L 365.6 240.3 L 371.1 243.5 L 372.2 241.9 L 375.0 242.5 L 375.0 239.3 L 376.2 239.0 L 376.3 237.7 L 378.9 237.9 L 377.9 230.3 L 381.7 230.7 L 389.0 235.5 L 390.9 232.4 L 393.9 233.7 L 396.2 231.7 L 399.0 233.4 L 398.6 234.1 L 404.4 239.7 L 409.0 242.4 L 409.4 241.2 L 407.8 239.5 L 408.4 238.8 L 412.0 241.9 L 416.7 243.1 L 416.6 245.2 L 419.6 247.2 L 423.5 247.5 L 425.6 249.6 L 427.4 248.8 L 428.4 251.8 L 433.7 256.5 L 432.2 256.7 L 431.8 258.1 L 434.5 260.6 L 433.3 261.3 L 435.7 265.9 L 437.9 267.3 L 436.1 268.9 L 436.9 269.4 L 436.7 272.0 L 434.4 272.2 L 435.1 275.6 L 432.4 275.0 L 431.8 276.7 L 430.3 276.9 L 431.4 279.8 L 428.1 283.3 L 426.6 283.5 L 426.8 286.9 L 428.9 287.9 L 430.0 289.7 L 428.1 290.4 L 427.0 292.6 L 424.7 292.9 L 417.1 289.4 L 415.3 291.8 L 417.5 295.2 L 419.1 295.8 L 419.2 297.9 L 423.3 297.8 L 423.7 299.8 L 426.3 298.9 L 426.9 300.5 L 425.2 302.5 L 426.1 304.5 L 428.6 302.3 L 429.4 303.1 L 430.0 300.9 L 432.0 300.4 L 428.8 294.3 L 433.8 293.0 L 433.3 292.2 L 436.4 290.2 L 439.0 293.0 L 438.9 296.2 L 440.7 296.9 L 442.3 296.2 L 442.4 297.7 L 447.5 297.6 L 448.8 298.6 L 449.2 300.9 L 451.2 301.9 L 450.0 302.1 L 450.4 305.2 L 451.2 305.6 L 449.8 306.8 L 451.6 308.6 L 458.0 310.4 L 461.3 308.8 L 461.0 306.6 L 465.4 306.4 L 466.4 303.3 L 463.9 301.2 L 465.0 301.2 L 465.8 299.2 L 471.1 298.5 L 472.0 299.7 L 472.4 298.9 L 470.7 295.0 L 472.5 292.1 L 471.9 290.4 L 473.1 291.0 L 473.8 289.5 L 469.8 287.0 L 472.4 284.7 L 472.0 281.0 L 475.6 280.9 L 479.0 283.4 L 481.7 283.1 L 485.0 282.0 L 482.9 279.1 L 483.9 278.2 L 485.9 279.0 L 492.4 278.0 L 491.3 271.5 L 493.1 269.7 L 492.4 264.6 L 490.9 264.8 L 488.5 262.2 L 486.9 262.7 L 485.4 260.8 L 479.6 258.8 L 478.3 255.9 L 472.8 256.0 L 473.0 258.2 L 472.0 257.9 L 473.2 259.9 L 473.0 261.1 L 470.3 262.9 L 471.8 264.2 L 471.3 266.2 L 474.9 267.1 L 476.1 268.8 L 475.5 272.8 L 474.1 273.7 L 472.3 273.1 Z"></path>
  <path id="qinghai" class="province" d="M 435.6 265.5 L 433.3 261.3 L 434.5 260.6 L 431.8 258.1 L 432.2 256.7 L 433.7 256.5 L 433.3 255.6 L 428.4 251.8 L 427.4 248.8 L 425.6 249.6 L 423.5 247.5 L 419.6 247.2 L 416.6 245.2 L 416.7 243.1 L 412.0 241.9 L 408.4 238.8 L 407.8 239.5 L 409.4 241.2 L 409.0 242.4 L 404.4 239.7 L 398.6 234.1 L 399.0 233.4 L 396.2 231.7 L 393.9 233.7 L 390.9 232.4 L 389.0 235.5 L 381.7 230.7 L 377.9 230.3 L 378.9 237.9 L 376.3 237.7 L 376.2 239.0 L 375.0 239.3 L 375.0 242.5 L 372.2 241.9 L 371.1 243.5 L 365.6 240.3 L 363.1 241.7 L 358.4 240.0 L 354.4 240.9 L 352.5 235.8 L 347.7 236.3 L 346.4 235.2 L 347.7 234.4 L 346.2 233.7 L 340.8 233.7 L 340.2 230.5 L 334.6 231.4 L 332.9 232.8 L 316.0 236.9 L 313.7 239.2 L 310.7 239.4 L 312.3 242.4 L 314.8 241.3 L 314.7 248.7 L 320.1 251.8 L 322.4 257.6 L 316.7 259.8 L 316.8 262.8 L 319.7 263.5 L 320.2 268.9 L 317.9 269.7 L 309.6 266.5 L 309.0 269.1 L 303.8 269.4 L 303.9 270.9 L 307.6 271.8 L 306.6 275.4 L 307.2 276.2 L 304.6 277.7 L 304.2 279.3 L 305.6 280.7 L 305.4 283.2 L 307.5 282.9 L 308.3 284.3 L 306.9 286.1 L 308.2 290.1 L 306.0 293.3 L 309.0 296.3 L 310.6 300.3 L 316.5 304.1 L 324.6 304.5 L 328.8 307.8 L 331.2 307.3 L 331.7 309.0 L 339.2 308.8 L 339.7 310.1 L 341.4 309.6 L 344.1 311.8 L 346.1 310.6 L 350.2 312.3 L 354.9 309.5 L 357.8 312.5 L 360.8 312.7 L 361.2 313.3 L 359.4 314.1 L 361.0 313.6 L 361.8 315.6 L 363.0 315.5 L 362.2 317.8 L 363.7 320.2 L 366.8 321.0 L 368.3 319.5 L 370.5 322.0 L 371.0 318.1 L 376.1 321.1 L 375.6 317.2 L 377.0 317.7 L 378.4 316.5 L 381.3 316.4 L 381.3 313.9 L 382.5 313.6 L 381.6 311.0 L 385.5 311.2 L 382.5 309.1 L 381.7 306.9 L 383.5 305.8 L 383.1 303.7 L 385.7 300.9 L 382.4 298.6 L 382.0 295.8 L 384.5 294.9 L 384.8 292.4 L 386.3 291.4 L 392.1 292.9 L 392.1 295.5 L 394.6 298.1 L 395.6 302.4 L 399.9 305.3 L 400.6 307.1 L 405.0 308.8 L 406.6 305.2 L 409.0 307.6 L 408.6 309.6 L 409.8 310.3 L 410.3 308.7 L 411.7 308.5 L 414.1 311.2 L 414.6 309.5 L 416.9 310.4 L 419.1 309.6 L 419.9 307.7 L 418.8 306.7 L 418.8 303.1 L 420.5 302.6 L 421.3 303.9 L 422.4 303.0 L 423.8 304.5 L 425.2 299.4 L 423.7 299.8 L 422.5 297.4 L 419.2 297.9 L 419.1 295.8 L 417.5 295.2 L 415.3 291.8 L 415.8 290.1 L 417.1 289.4 L 419.5 289.9 L 424.8 293.0 L 427.0 292.6 L 428.1 290.4 L 430.0 289.7 L 428.9 287.9 L 426.8 286.9 L 426.6 283.5 L 428.1 283.3 L 431.4 279.8 L 430.3 276.9 L 431.8 276.7 L 432.4 275.0 L 434.7 276.0 L 435.4 275.2 L 434.2 272.7 L 435.2 271.6 L 436.7 272.0 L 436.9 269.4 L 436.1 268.9 L 437.9 267.3 L 435.6 265.7 Z"></path>
  <path id="ningxia" class="province" d="M 479.2 256.5 L 479.6 250.2 L 483.0 247.3 L 478.4 243.4 L 476.0 243.7 L 471.4 241.3 L 476.3 232.4 L 474.4 228.1 L 472.6 228.0 L 471.7 229.3 L 469.5 229.5 L 469.5 230.9 L 468.1 230.8 L 466.4 233.9 L 464.4 247.8 L 462.8 249.1 L 460.0 249.0 L 449.9 252.4 L 453.7 252.7 L 453.3 255.2 L 454.7 254.7 L 456.4 257.2 L 458.5 257.8 L 460.2 260.2 L 458.9 261.4 L 459.4 263.2 L 461.9 268.1 L 460.3 269.5 L 460.6 272.4 L 464.3 273.3 L 463.7 273.6 L 465.2 276.1 L 467.5 275.9 L 467.8 277.6 L 469.0 277.1 L 470.3 279.1 L 471.6 277.6 L 471.0 273.7 L 474.1 273.7 L 475.8 272.2 L 475.1 271.3 L 475.9 270.8 L 475.8 268.2 L 473.4 266.6 L 471.7 266.7 L 471.8 264.2 L 470.3 262.9 L 473.0 261.1 L 472.0 257.9 L 473.0 258.2 L 472.7 256.1 L 478.8 256.5 Z M 467.2 276.1 L 465.7 277.0 L 467.2 276.5 Z"></path>
  <path id="xinjiang" class="province" d="M 372.3 184.3 L 372.1 182.0 L 367.3 176.9 L 363.8 167.1 L 361.9 166.8 L 362.7 163.1 L 358.7 163.7 L 355.9 162.5 L 351.0 158.0 L 344.0 153.8 L 337.9 152.7 L 331.6 153.2 L 329.8 152.2 L 324.9 152.3 L 320.7 150.4 L 318.2 150.7 L 316.2 145.2 L 319.7 139.0 L 318.4 134.9 L 320.2 131.4 L 319.9 129.2 L 318.4 125.7 L 315.1 122.1 L 313.3 115.8 L 310.9 114.6 L 310.2 112.3 L 307.2 113.0 L 305.3 110.0 L 300.5 110.7 L 299.1 108.9 L 296.2 107.9 L 295.0 104.6 L 289.6 102.1 L 290.8 99.9 L 287.4 97.5 L 289.0 96.0 L 288.2 93.1 L 284.4 94.6 L 279.0 93.8 L 277.5 95.8 L 277.9 99.7 L 276.0 102.6 L 272.5 104.2 L 268.2 104.4 L 266.2 107.7 L 265.7 109.9 L 267.3 120.9 L 265.8 124.3 L 263.2 124.1 L 260.0 127.1 L 258.0 125.0 L 250.0 125.5 L 244.4 122.5 L 241.1 122.0 L 233.6 144.7 L 233.7 145.9 L 236.3 147.4 L 236.5 150.5 L 230.2 150.1 L 228.9 148.0 L 220.2 151.6 L 212.4 152.6 L 210.2 154.6 L 211.3 156.2 L 213.0 155.5 L 215.3 158.5 L 215.2 165.4 L 218.7 174.0 L 218.1 176.2 L 219.2 178.3 L 215.1 180.3 L 217.3 182.1 L 213.9 183.0 L 212.9 185.6 L 214.2 190.6 L 213.0 191.4 L 212.7 193.6 L 210.6 193.5 L 209.1 195.4 L 204.7 196.5 L 198.1 201.0 L 193.3 202.1 L 193.0 204.2 L 190.1 205.1 L 189.5 206.8 L 180.7 206.8 L 179.5 207.7 L 177.3 214.1 L 175.3 215.6 L 174.8 214.4 L 169.2 216.4 L 169.4 213.9 L 168.1 211.5 L 164.6 214.3 L 160.7 213.3 L 160.2 214.3 L 161.3 215.7 L 159.3 215.6 L 155.9 218.9 L 151.8 219.8 L 150.8 223.2 L 151.9 225.2 L 151.1 226.7 L 147.5 227.9 L 150.8 232.7 L 149.4 234.6 L 150.4 237.7 L 152.5 238.8 L 153.9 236.9 L 156.5 237.2 L 160.9 239.3 L 160.3 243.2 L 162.3 248.2 L 161.2 249.5 L 163.7 252.6 L 161.3 254.8 L 157.4 254.8 L 157.3 256.8 L 160.7 257.0 L 161.2 258.5 L 162.5 257.5 L 166.3 258.3 L 166.7 261.1 L 168.5 260.5 L 170.8 261.8 L 172.6 267.2 L 171.5 269.1 L 173.0 269.7 L 173.6 272.1 L 177.5 270.9 L 179.6 274.1 L 183.8 275.7 L 193.1 276.0 L 191.9 279.3 L 194.4 286.5 L 201.9 289.9 L 201.9 288.9 L 209.4 288.2 L 211.6 281.6 L 214.9 279.5 L 214.0 278.4 L 215.6 276.6 L 220.8 278.3 L 222.1 277.1 L 227.9 279.2 L 231.3 278.1 L 231.3 276.6 L 235.6 273.4 L 240.5 274.0 L 242.0 277.2 L 252.2 277.7 L 261.0 272.9 L 263.1 272.5 L 266.0 274.3 L 267.2 272.9 L 269.8 272.6 L 272.1 268.3 L 274.1 267.4 L 281.6 266.3 L 283.7 264.8 L 285.7 265.8 L 293.4 264.1 L 295.5 264.3 L 297.4 266.4 L 299.0 265.5 L 301.0 266.8 L 302.0 266.3 L 307.3 269.0 L 309.0 269.1 L 309.6 266.5 L 318.6 269.6 L 320.6 268.5 L 319.7 263.5 L 316.8 262.8 L 316.7 259.8 L 322.4 257.6 L 322.1 255.7 L 320.1 251.8 L 314.7 248.7 L 314.8 241.3 L 312.3 242.4 L 310.7 239.4 L 313.7 239.2 L 316.0 236.9 L 333.3 232.6 L 332.5 229.8 L 335.5 226.3 L 338.3 212.7 L 346.5 211.5 L 348.9 205.6 L 354.1 200.5 L 356.2 200.1 L 360.0 197.0 L 361.6 199.7 L 364.3 196.7 L 369.0 194.9 L 370.2 191.1 L 368.3 188.2 L 370.1 185.7 Z"></path>
  <path id="taiwan" class="province" d="M 608.6 423.1 L 610.5 425.2 L 611.1 428.6 L 612.8 428.9 L 613.9 422.2 L 618.3 415.7 L 620.4 405.4 L 622.7 400.7 L 622.3 397.4 L 624.0 395.6 L 623.0 394.2 L 619.3 392.3 L 614.3 395.2 L 605.2 409.7 L 604.4 416.4 L 607.1 422.1 Z M 600.7 411.3 L 600.0 410.9 L 600.4 411.8 Z M 599.4 410.5 L 599.0 411.2 L 599.6 410.5 Z M 619.1 426.9 L 619.9 427.8 L 619.7 426.9 Z"></path>
  <path id="hongkong" class="province" d="M 545.6 422.4 L 544.5 423.3 L 545.5 424.1 L 543.8 425.8 L 546.0 424.3 L 547.9 425.7 L 548.1 423.7 L 548.8 424.2 L 549.3 423.2 L 547.4 423.2 L 548.6 422.4 L 547.8 422.0 L 546.1 422.4 Z"></path>
  <path id="macao" class="province" d=""></path>
  <circle cx="569.1" cy="217.6" r="2.6" class="map-core-dot"></circle><circle cx="569.1" cy="217.6" r="8" class="map-pulse-dot" style="animation-delay:0s"></circle>
  <circle cx="550.2" cy="244.8" r="2.6" class="map-core-dot"></circle><circle cx="550.2" cy="244.8" r="8" class="map-pulse-dot" style="animation-delay:0.14s"></circle>
  <circle cx="539.7" cy="413.6" r="2.8" class="map-core-dot"></circle><circle cx="539.7" cy="413.6" r="8" class="map-pulse-dot" style="animation-delay:0.28s"></circle>
  <circle cx="593.0" cy="304.0" r="2.4" class="map-core-dot"></circle><circle cx="593.0" cy="304.0" r="7" class="map-pulse-dot" style="animation-delay:0.42s"></circle>
  <circle cx="600.0" cy="357.0" r="2.4" class="map-core-dot"></circle><circle cx="600.0" cy="357.0" r="7" class="map-pulse-dot" style="animation-delay:0.56s"></circle>
  <circle cx="587.0" cy="265.0" r="2.4" class="map-core-dot"></circle><circle cx="587.0" cy="265.0" r="7" class="map-pulse-dot" style="animation-delay:0.7s"></circle>
  <circle cx="547.0" cy="301.0" r="2.4" class="map-core-dot"></circle><circle cx="547.0" cy="301.0" r="7" class="map-pulse-dot" style="animation-delay:0.84s"></circle>
  <circle cx="533.0" cy="331.0" r="2.4" class="map-core-dot"></circle><circle cx="533.0" cy="331.0" r="7" class="map-pulse-dot" style="animation-delay:0.98s"></circle>
  <circle cx="430.0" cy="339.0" r="2.4" class="map-core-dot"></circle><circle cx="430.0" cy="339.0" r="7" class="map-pulse-dot" style="animation-delay:1.12s"></circle>
</svg>
